<svg id="Capa_1" enable-background="new 0 0 512 512" height="512" viewBox="0 0 512 512" width="512" xmlns="http://www.w3.org/2000/svg"><g><path d="m475.584 395.802v-31.469c0-31.352-25.519-56.858-56.886-56.858-1.043 0-2.078.032-3.107.088l-5.824-30.326c17.552-4.298 39.017-15.159 50.107-33.278 6.502-10.624 11.789-28.025.511-50.876-.111-.268-.238-.526-.378-.777l-52.897-122.781c-.078-.204-.164-.404-.258-.599l-16.572-38.463c-12.216-28.413-26.674-30.463-49.035-30.463h-170.49c-22.361 0-36.819 2.05-49.032 30.457l-16.572 38.463c-.096.198-.184.401-.262.609l-52.907 122.801c-11.773 23.224-6.43 40.888.144 51.629 11.089 18.118 32.555 28.979 50.107 33.278l-5.824 30.326c-1.029-.056-2.064-.088-3.107-.088-31.351 0-56.856 25.507-56.856 56.858v31.469c-14.582.187-26.388 12.099-26.388 26.725v81.973c0 4.143 3.357 7.5 7.5 7.5h151.488c4.143 0 7.5-3.357 7.5-7.5v-16.803h59.323c4.143 0 7.5-3.357 7.5-7.5s-3.357-7.5-7.5-7.5h-59.323v-50.171-11.326c0-33.926 27.587-61.526 61.496-61.526h35.917c33.908 0 61.495 27.601 61.495 61.526v11.326 50.171h-63.465c-4.143 0-7.5 3.357-7.5 7.5s3.357 7.5 7.5 7.5h63.465v16.803c0 4.143 3.357 7.5 7.5 7.5h151.488c4.143 0 7.5-3.357 7.5-7.5v-81.974c0-14.615-11.79-26.521-26.358-26.724zm-15-31.469v31.46h-83.743v-31.46c0-20.384 14.648-37.401 33.968-41.102.05-.009.1-.012.151-.022.028-.005.055-.014.083-.02 2.484-.461 5.04-.714 7.656-.714 23.095 0 41.885 18.777 41.885 41.858zm-13.504-128.204c-11.131 18.187-38.422 28.244-53.031 28.244h-50.861l-14.967-21.733c9.048-11.218 15.542-24.577 18.583-39.187h101.812c4.906 11.993 4.405 22.968-1.536 32.676zm-31.722-109.547h-66.613v-46.9h46.407zm-66.613 57.959v-42.959h73.076l20.193 46.871h-93.358c.055-1.298.089-2.601.089-3.912zm27.757-148.148 12.188 28.289h-39.945v-49.566c13.904.564 20.24 3.793 27.757 21.277zm-42.757 65.22h-60.424c-4.143 0-7.5 3.357-7.5 7.5s3.357 7.5 7.5 7.5h60.424v67.928c0 19.954-7.567 38.17-19.976 51.946-.372.328-.705.687-.996 1.07-14.198 15.184-34.389 24.701-56.773 24.701s-42.574-9.517-56.773-24.701c-.292-.384-.625-.742-.996-1.07-12.409-13.776-19.976-31.993-19.976-51.946v-67.928h60.047c4.143 0 7.5-3.357 7.5-7.5s-3.357-7.5-7.5-7.5h-60.047v-86.613h39.426v32.357c0 14.645 11.928 26.56 26.589 26.56h23.461c14.661 0 26.589-11.915 26.589-26.56v-32.357h39.426v86.613zm-243.566 39.969h73.076v42.959c0 1.311.034 2.614.088 3.912h-93.357zm26.669-61.9h46.407v46.9h-66.613zm115.833-64.682h46.639v32.357c0 6.374-5.199 11.56-11.589 11.56h-23.461c-6.39 0-11.589-5.186-11.589-11.56zm-97.18 21.387c7.514-17.478 13.85-20.707 27.754-21.271v49.566h-39.944zm-70.581 199.742c-5.94-9.708-6.442-20.683-1.535-32.676h101.812c3.041 14.611 9.535 27.969 18.583 39.187l-14.967 21.733h-50.861c-14.61 0-41.901-10.058-53.032-28.244zm28.382 86.346c2.615 0 5.172.253 7.656.714.028.006.054.015.083.02.051.01.101.013.151.022 19.32 3.701 33.968 20.719 33.968 41.102v31.46h-83.715v-31.46c0-23.081 18.777-41.858 41.857-41.858zm68.244 174.525h-34.356v-16.803c0-4.143-3.357-7.5-7.5-7.5s-7.5 3.357-7.5 7.5v16.803h-37.776v-16.803c0-4.143-3.357-7.5-7.5-7.5s-7.5 3.357-7.5 7.5v16.803h-34.356v-74.474c0-6.47 5.264-11.733 11.733-11.733h112.993c6.485 0 11.762 5.264 11.762 11.733v57.671zm112.413-162.326h-35.917c-38.036 0-69.667 27.921-75.516 64.348-3.687-2.003-7.897-3.157-12.366-3.219v-31.469c0-25.119-16.38-46.472-39.014-53.974l5.954-31.002c.284.005.575.016.852.016h54.803c2.468 0 4.777-1.214 6.177-3.246l15.416-22.385c16.399 14.618 38.005 23.517 61.653 23.517s45.254-8.899 61.653-23.517l15.416 22.385c1.399 2.032 3.709 3.246 6.177 3.246h54.803c.277 0 .568-.011.852-.016l5.954 31.002c-22.634 7.503-39.014 28.855-39.014 53.974v31.469c-4.469.062-8.679 1.217-12.366 3.219-5.851-36.428-37.481-64.348-75.517-64.348zm212.983 162.326h-34.328v-16.803c0-4.143-3.357-7.5-7.5-7.5s-7.5 3.357-7.5 7.5v16.803h-37.804v-16.803c0-4.143-3.357-7.5-7.5-7.5s-7.5 3.357-7.5 7.5v16.803h-34.356v-16.803-57.671c0-6.47 5.276-11.733 11.762-11.733h112.993c6.47 0 11.733 5.264 11.733 11.733z"/></g></svg>