<svg id="Layer_1" height="512" viewBox="0 0 512 512" width="512" xmlns="http://www.w3.org/2000/svg" data-name="Layer 1"><path d="m44.283 262.679 6.517 13.375a30.181 30.181 0 0 0 26.97 16.86h60.494l-16.683 90.486h-7.287a90.808 90.808 0 0 0 -90.7 90.7v12.45a15.208 15.208 0 0 0 15.187 15.2h394.209a15.2 15.2 0 0 0 14.662-11.279h12.512a6 6 0 0 0 6-6.026q-.022-5.266-.146-10.483l21.053 1.515c.144.01.287.015.43.015a6 6 0 0 0 5.988-5.616c3.966-61.811-3.83-117.548-23.173-165.664a280.913 280.913 0 0 0 -68.216-100.463c-43.04-40.575-87.14-56.931-100.752-61.284-2.981-46-11.186-81.764-24.408-106.319-10.586-19.66-20.711-24.811-21.831-25.333a6 6 0 0 0 -8.362 4l-4.055 16.414c-7.389-9.153-17.677-15.347-19.4-16.349a6 6 0 0 0 -8.855 3.826l-28.437 121.818-39.722 7.509a44.5 44.5 0 0 0 -28.212 18.024l-11.166 15.688a32.546 32.546 0 0 1 -20.85 13.226l-56.429 10.175a14.727 14.727 0 0 0 -9.468 22.914zm99.985 63.85h4.332a6 6 0 0 0 0-12h-2.122l3.924-21.288a37.189 37.189 0 0 1 32.17 39.3l-4.157 63.233h-4.6a6 6 0 0 0 0 12h3.814l-1.584 24.1h-51.2zm30.989 117.337-1.29 19.626h-11.238l2.755-19.626zm-21.891 0-2.755 19.626h-8.877l2.756-19.626zm-39.072-48.466h5.074l-8.146 44.185a231.087 231.087 0 0 1 -47.54-25.69 78.344 78.344 0 0 1 50.612-18.495zm-75.513 94.35a3.2 3.2 0 0 1 -3.192-3.191v-12.45a78.352 78.352 0 0 1 19.411-51.673q5.04 3.665 10.392 7.1l-15.785 60.214zm43.762 0h-20.531l14.093-53.75q8.785 4.983 18.284 9.371zm37.006 0h-24.585l10.55-39.524q1.736.711 3.488 1.4l-3.092 16.774a6 6 0 0 0 5.9 7.088h10.271zm-.531-26.258 3.618-19.626h9.736l-2.756 19.626zm104.549 26.258h-91.83l2.534-14.258h45.315a6 6 0 0 0 5.85-4.695 355.269 355.269 0 0 0 38.131 2.675zm-37.267-30.941 1.72-26.162a53.828 53.828 0 0 0 35.8 14.078 50.192 50.192 0 0 0 7.6-.579 51.163 51.163 0 0 0 27-13.235l1.827 27.254c-10.123.9-20.415 1.36-30.679 1.36a344.352 344.352 0 0 1 -43.268-2.716zm2.818-42.865.746-11.348a46.076 46.076 0 0 0 32.427 13.963q.454.007.907.008a46.417 46.417 0 0 0 33.321-14l.766 11.441c-3.192 4.654-12.369 15.921-27.685 18.273-15.288 2.358-30.977-4.816-40.481-18.337zm94.775-131.059h4.163l30.744 146.981h-48.42l-1.614-24.1h1.655a6 6 0 0 0 0-12h-2.459l-9.118-135.966a87.85 87.85 0 0 0 21.168-13.385l5.536 26.473h-1.654a6 6 0 0 0 0 12zm37.027 98.515-30.854-147.529c1.267-1.619 2.43-3.265 3.522-4.927 14.736 20.479 55.25 82.736 58.917 152.46zm.385 60.462 4.1 19.626h-10.861l-2.755-19.626zm-18.878 19.626h-8.878l-2.755-19.626h8.878zm-21 0h-8.927l-1.315-19.626h7.5zm-45.86 26.262v-16.281c8.681-.144 17.355-.6 25.914-1.365a6 6 0 0 0 5.4 3.388h60.5l2.533 14.258zm87.863-94.35h34.046a78.245 78.245 0 0 1 44.36 13.735c-18.882 14.632-42.159 26.858-68.064 35.717zm18.675 94.346-5.86-33.066q10.075-3.389 19.639-7.417l10.806 40.487zm37 0-12.127-45.446q9.461-4.5 18.229-9.6l14.435 55.05zm57.072-3.191a3.2 3.2 0 0 1 -3.192 3.191h-20.938l-16.163-61.641c5.446-3.576 10.644-7.318 15.541-11.227a78.477 78.477 0 0 1 24.757 57.227zm12-8.088v-4.362a90.656 90.656 0 0 0 -38.168-73.9c-.966-59.919-29.225-113.033-53.015-147.271a384.491 384.491 0 0 0 -50.588-59.3q.132-1.256.233-2.486a112.923 112.923 0 0 0 .29-12.588c4 2.433 9.1 5.747 14.965 10.018a289.665 289.665 0 0 1 53.607 51.346c22.638 27.91 40.719 60.112 53.741 95.711 15.7 42.92 24.054 90.947 24.857 142.837zm-54.306-265.987a269.02 269.02 0 0 1 65.311 96.208c18.041 44.877 25.664 96.788 22.682 154.383l-16.281-1.171c-2.187-47.174-10.639-91.1-25.229-130.832-13.55-36.9-32.378-70.288-55.961-99.236-34.529-42.386-68.664-62.494-78.778-67.879-.422-2.846-.9-5.456-1.386-7.761 17.308 6.408 54.117 22.799 89.642 56.288zm-90.059-4.641a387.411 387.411 0 0 1 43.333 51.945c21.818 31.4 47.568 79.229 50.612 133.072a90.006 90.006 0 0 0 -33.222-9.179c-2.222-45.784-19.586-87.934-34.089-115.672a354.2 354.2 0 0 0 -30.562-48.767 82.552 82.552 0 0 0 3.928-11.399zm-79.687-177.854c6.179 4.825 13.489 12.088 14.189 18.967l-21.169 85.682-18.254 3.451zm-194.41 188.615a2.652 2.652 0 0 1 2.035-1.642l56.428-10.176a44.481 44.481 0 0 0 28.5-18.075l11.168-15.689a32.572 32.572 0 0 1 20.654-13.193l65.484-12.38-1.745 7.061a6 6 0 0 0 11.65 2.878l30.4-123.042c4.136 14.43 5.393 35.146 3.626 61.162a464.213 464.213 0 0 1 -6.951 53.526 6 6 0 1 0 11.762 2.382c.643-3.178 12.111-60.906 6.291-104.173 8.7 18.408 17.711 49.261 20.617 100.115a5.971 5.971 0 0 0 .322 1.625 113.109 113.109 0 0 1 4.732 41.2c-1.287 15.956-6.41 29.278-15.3 39.87a6.087 6.087 0 0 0 -.644.755q-10.724 12.373-28.432 19.6a6 6 0 0 0 -3.723 5.958l8.611 128.455a34.4 34.4 0 0 1 -64.024-.109l3.377-51.384a49.185 49.185 0 0 0 -49.078-52.41h-67.7a18.11 18.11 0 0 1 -16.188-10.114l-2.952-6.06 76.8-7.757a6 6 0 1 0 -1.206-11.939l-81.851 8.267-22.378-32.111a2.651 2.651 0 0 1 -.285-2.6z"/><path d="m142.777 207.251a5.991 5.991 0 0 0 7.8-1.476 57.15 57.15 0 0 0 46.383-12.319l5.083 1.531a6 6 0 1 0 3.457-11.487l-34.232-10.31c-7.738-2.33-15.843 1.007-20.174 8.3l-10.413 17.539a6 6 0 0 0 2.096 8.222zm39.434-18.236a45.1 45.1 0 0 1 -6.041 2.784l-.227-4.672zm-20.8-1.4a6.717 6.717 0 0 1 2.421-2.433l.451 9.3a45.342 45.342 0 0 1 -6.986.062z"/></svg>