<?xml version="1.0" standalone="no"?>
<!DOCTYPE svg PUBLIC "-//W3C//DTD SVG 20010904//EN"
 "http://www.w3.org/TR/2001/REC-SVG-20010904/DTD/svg10.dtd">
<svg version="1.0" xmlns="http://www.w3.org/2000/svg"
 width="64.000000pt" height="64.000000pt" viewBox="0 0 64.000000 64.000000"
 preserveAspectRatio="xMidYMid meet">

<g transform="translate(0.000000,64.000000) scale(0.100000,-0.100000)"
fill="#000000" stroke="none">
<path d="M193 584 c-61 -30 -118 -89 -145 -152 -29 -66 -22 -191 14 -253 33
-55 70 -91 128 -121 37 -19 60 -23 130 -23 75 0 91 3 138 30 59 32 91 66 125
129 17 33 22 58 22 126 0 73 -4 92 -27 136 -53 101 -145 154 -268 154 -51 0
-78 -6 -117 -26z m199 -4 c21 -6 40 -15 43 -20 3 -4 0 -42 -6 -84 -11 -73 -11
-78 16 -132 24 -50 79 -104 118 -117 8 -2 2 -18 -16 -45 -30 -46 -33 -48 -56
-28 -9 7 -45 23 -81 35 -36 12 -73 28 -83 35 -17 13 -17 15 0 44 17 29 16 31
-10 82 l-28 53 36 52 c39 55 38 74 -1 95 -58 31 -11 52 68 30z m-122 -15 c0
-8 14 -21 30 -30 37 -19 37 -31 0 -75 -36 -41 -37 -62 -8 -117 22 -41 22 -43
5 -72 -16 -28 -16 -30 2 -52 14 -17 16 -27 8 -40 -8 -12 -5 -24 11 -47 27 -37
27 -44 3 -66 -15 -13 -26 -15 -51 -9 -28 8 -35 15 -44 54 -7 25 -22 55 -35 68
-24 24 -24 28 -5 119 5 25 1 41 -18 70 -13 20 -32 56 -42 79 -23 51 -17 60 59
104 55 32 85 37 85 14z m248 -69 c50 -54 77 -136 67 -202 l-6 -45 -31 18 c-44
26 -88 84 -95 126 -6 42 5 147 16 147 5 0 27 -20 49 -44z m-388 -116 c38 -58
39 -65 24 -111 -16 -49 -11 -72 25 -119 24 -32 36 -70 21 -70 -19 0 -101 83
-123 125 -29 54 -30 174 -3 225 l19 35 14 -35 c7 -19 18 -42 23 -50z m295
-223 c35 -13 60 -28 60 -36 0 -17 -79 -61 -110 -61 -18 0 -21 4 -17 25 2 14
-3 36 -12 50 -17 26 -14 45 7 44 7 0 39 -10 72 -22z"/>
</g>
</svg>
