<svg id="Layer_1" height="512" viewBox="0 0 512 512" width="512" xmlns="http://www.w3.org/2000/svg" data-name="Layer 1"><path d="m435.186 13.5h-277.959a61.19 61.19 0 0 0 -53.827 31.984 6.007 6.007 0 0 0 -.563 1.086 59.721 59.721 0 0 0 -6.674 27.464 19.542 19.542 0 0 0 5.751 13.889l23.168 24.832-19.456 17.545a10 10 0 0 0 -3.3 7.415v35.808a10.05 10.05 0 0 0 2.961 7.094l12.628 12.5-16.891 16.726a10.052 10.052 0 0 0 -2.962 7.095v170.974h-77.562a10.5 10.5 0 0 0 -10.5 10.465v33.9a66.286 66.286 0 0 0 19.291 46.8 63.708 63.708 0 0 0 45.523 19.423h274.578c17.1 0 32.854-6.292 44.353-17.716a59.889 59.889 0 0 0 17.586-42.916l-1.631-99.528a9.926 9.926 0 0 0 -2.96-6.933l-12.654-12.532 16.891-16.726a10.052 10.052 0 0 0 2.962-7.1v-170.961h77.561a10.5 10.5 0 0 0 10.5-10.465v-33.9c0-36.514-29.973-66.223-66.814-66.223zm-33.245 53.779v226.931l-17.516 17.347a10.41 10.41 0 0 0 -3.18 6.9 9.924 9.924 0 0 0 2.952 7.514l13.521 13.389 1.614 98.608c0 27.331-20.949 48.024-48.9 48.525l.045-.41c-17.275-1.9-26.438-11.1-27.238-27.329l-.678-64.9a6 6 0 0 0 -6-5.937h-140.118a6 6 0 0 0 0 12h134.179l.618 59.078c0 .072 0 .145.007.218.364 7.771 2.561 18.875 11.012 27.292h-36.106v-6.628a6 6 0 0 0 -12 0v6.623h-199.339c-17.926 0-34.108-9.738-43.7-24.234h1.369a6 6 0 0 0 0-12h-7.363a53.669 53.669 0 0 1 -3.12-17.992v-32.362h36.676v5.423a6 6 0 0 0 12 0v-5.423h65.767a6 6 0 1 0 0-12h-26.384v-170.121l17.741-17.574a9.977 9.977 0 0 0 0-14.186l-13.48-13.348v-34.065l20.316-18.326a9.977 9.977 0 0 0 .613-14.223l-24.639-26.411c-.053-.058-.108-.115-.165-.17a7.629 7.629 0 0 1 -2.286-5.454 47.807 47.807 0 0 1 4.041-19.261h19.2a6 6 0 0 0 0-12h-11.667a49.192 49.192 0 0 1 37.494-17.273h210.148v6.756a6 6 0 0 0 12 0v-6.756h40.492a57.861 57.861 0 0 0 -17.926 41.779zm88.059 44.809h-22.539v-9.267a6 6 0 0 0 -12 0v9.267h-41.52v-44.809a46.07 46.07 0 0 1 26.453-41.528c27.79 2.604 49.606 25.813 49.606 53.975z"/><path d="m184.565 447.722h15.756a6 6 0 1 0 0-12h-15.756a6 6 0 0 0 0 12z"/><path d="m256.686 91.159a6 6 0 0 0 -6 6v242.366a6 6 0 0 0 12 0v-242.366a6 6 0 0 0 -6-6z"/><path d="m151.651 236.967h69.458a6 6 0 0 0 0-12h-28.729v-10.391a6 6 0 0 0 -12 0v10.391h-22.729v-10.391a6 6 0 1 0 -12 0v16.391a6 6 0 0 0 6 6z"/><path d="m186.38 143.711a27.774 27.774 0 1 0 -27.986-27.773 27.912 27.912 0 0 0 27.986 27.773zm0-43.547a15.775 15.775 0 1 1 -15.986 15.774 15.9 15.9 0 0 1 15.986-15.774z"/><path d="m219.886 319.107-7.465 8.176-7.965-8.283a6 6 0 0 0 -8.24-.391l-10.56 9.088-7.745-8.564a6 6 0 0 0 -8.475-.424l-9.63 8.713-6.753-8.1a6 6 0 1 0 -9.219 7.681l10.754 12.897a6 6 0 0 0 8.635.608l9.813-8.88 7.647 8.455a6 6 0 0 0 8.364.524l10.692-9.2 8.468 8.811a6 6 0 0 0 4.326 1.843h.077a6 6 0 0 0 4.354-1.955l11.783-12.906a6 6 0 1 0 -8.861-8.091z"/><path d="m361.827 321.41a6 6 0 0 0 -6 6v4.39h-22.945v-10.39a6 6 0 0 0 -12 0v10.39h-22.729v-10.39a6 6 0 0 0 -12 0v16.39a6 6 0 0 0 6 6h69.457a6 6 0 0 0 6-6h.217v-10.39a6 6 0 0 0 -6-6z"/><path d="m294.913 137.821h64.154a6 6 0 0 0 4.222-10.263l-32.077-31.767a6 6 0 0 0 -8.443 0l-32.078 31.767a6 6 0 0 0 4.222 10.263zm32.077-29.321 17.491 17.322h-34.981z"/><path d="m308.506 187.474a6 6 0 0 0 -3.555 5.479v59.637a6 6 0 1 0 12 0v-46.19l22.071 19.8a6 6 0 0 0 8.014-8.933l-32.078-28.776a6 6 0 0 0 -6.452-1.017z"/></svg>